<?xml version="1.0" encoding="UTF-8"?>
<svg version="1.1" xmlns="http://www.w3.org/2000/svg" width="512" height="512">
<path d="M0 0 C9.11152504 1.69875891 16.9318569 12.77836442 23.34448242 19.21411133 C25.14192236 21.01697341 26.94472661 22.81434985 28.74804688 24.61132812 C29.89355047 25.75749147 31.03874439 26.90396442 32.18359375 28.05078125 C32.99128456 28.85543571 32.99128456 28.85543571 33.81529236 29.67634583 C38.56934116 34.46069029 38.56934116 34.46069029 39.00390625 38.97265625 C38.62600516 43.40949494 37.55095313 44.83757687 34.625 48.125 C33.79742187 49.07761719 32.96984375 50.03023437 32.1171875 51.01171875 C30.71077252 52.56058412 29.30109407 54.10652461 27.8828125 55.64453125 C-2.76501526 89.29848566 -11.83325177 133.6307581 -10.3125 177.6875 C-9.01120568 197.04346728 -2.83846452 216.35662119 5.6875 233.6875 C5.99413574 234.31849609 6.30077148 234.94949219 6.61669922 235.59960938 C13.59535558 249.79569416 22.70492212 261.8800011 33.12109375 273.7265625 C38.5543372 279.99505342 38.5543372 279.99505342 39.3125 283.9375 C37.79091382 293.06701709 26.58033957 300.94809435 20.16088867 307.34448242 C18.35802659 309.14192236 16.56065015 310.94472661 14.76367188 312.74804688 C13.61750853 313.89355047 12.47103558 315.03874439 11.32421875 316.18359375 C10.78778244 316.72205429 10.25134613 317.26051483 9.69865417 317.81529236 C6.59363077 320.90065397 4.93002575 322.48869588 0.5625 323.1875 C-5.07705279 322.45981577 -7.4456266 319.67713129 -11.3125 315.6875 C-12.13621094 314.86121094 -12.95992187 314.03492188 -13.80859375 313.18359375 C-52.24876338 273.06968669 -71.85507657 217.00404645 -71.625 162.0625 C-71.62176727 160.67203461 -71.62176727 160.67203461 -71.61846924 159.253479 C-71.56732554 145.5407609 -71.21882016 132.13894438 -68.3125 118.6875 C-68.10850586 117.72827637 -67.90451172 116.76905273 -67.69433594 115.78076172 C-61.11558077 85.71671243 -36.42665288 7.56024871 0 0 Z " fill="#8AF6AA" transform="translate(103.3125,94.3125)"/>
<path d="M0 0 C3.0913316 1.90436462 5.48228491 4.40235745 8 7 C8.82371094 7.82628906 9.64742188 8.65257813 10.49609375 9.50390625 C48.93626338 49.61781331 68.54257657 105.68345355 68.3125 160.625 C68.30926727 162.01546539 68.30926727 162.01546539 68.30596924 163.434021 C68.25482554 177.1467391 67.90632016 190.54855562 65 204 C64.69400879 205.43883545 64.69400879 205.43883545 64.38183594 206.90673828 C55.55623912 247.23855954 35.04774218 297.06553666 0 322 C-3.3125 322.6875 -3.3125 322.6875 -7 322 C-14.26959844 316.98237317 -20.43390986 309.71889916 -26.65698242 303.47338867 C-28.45442236 301.67052659 -30.25722661 299.87315015 -32.06054688 298.07617188 C-33.20605047 296.93000853 -34.35124439 295.78353558 -35.49609375 294.63671875 C-36.30378456 293.83206429 -36.30378456 293.83206429 -37.12779236 293.01115417 C-40.21315397 289.90613077 -41.80119588 288.24252575 -42.5 283.875 C-41.77802649 278.2797053 -38.80909561 275.96582047 -35 272 C-4.62032725 237.61365922 9.28894403 194.67617154 7 149 C3.99454696 109.65229239 -11.78998688 74.74413394 -38.91796875 46.2578125 C-41.41210364 43.55310337 -41.91695497 42.51903143 -42.5 38.875 C-41.31698948 29.7066685 -29.87028894 21.71693603 -23.47338867 15.34301758 C-21.67052659 13.54557764 -19.87315015 11.74277339 -18.07617188 9.93945312 C-16.93000853 8.79394953 -15.78353558 7.64875561 -14.63671875 6.50390625 C-14.10028244 5.96544571 -13.56384613 5.42698517 -13.01115417 4.87220764 C-8.59819176 0.48718921 -6.36356524 -0.82110519 0 0 Z " fill="#11BD9D" transform="translate(412,95)"/>
<path d="M0 0 C9.07686916 2.07016314 16.76422159 12.86057539 23.21948242 19.33911133 C25.01692236 21.14197341 26.81972661 22.93934985 28.62304688 24.73632812 C29.76855047 25.88249147 30.91374439 27.02896442 32.05859375 28.17578125 C32.86628456 28.98043571 32.86628456 28.98043571 33.69029236 29.80134583 C36.87112298 33.00244662 38.34203469 34.73021575 39.25 39.1875 C39.21202187 44.44747084 35.96507393 47.34900448 32.62304688 51.11352539 C20.01142332 65.37255336 13.8963227 84.60541251 14.31640625 103.55859375 C15.75174544 122.5369675 22.19861341 140.15865839 35.5625 154.0625 C37.84109333 156.60360409 39.10453175 158.37626761 39.4375 161.8125 C38.22100211 170.93332386 26.32366938 179.2042915 20.03588867 185.46948242 C18.23302659 187.26692236 16.43565015 189.06972661 14.63867188 190.87304688 C13.49250853 192.01855047 12.34603558 193.16374439 11.19921875 194.30859375 C10.66278244 194.84705429 10.12634613 195.38551483 9.57365417 195.94029236 C6.46863077 199.02565397 4.80502575 200.61369588 0.4375 201.3125 C-8.2749637 200.18831113 -13.75317892 191.43868724 -18.93530273 184.90893555 C-31.70062784 168.26701779 -40.34618098 148.3336949 -44.4375 127.8125 C-44.66179687 126.75933594 -44.88609375 125.70617187 -45.1171875 124.62109375 C-51.32255858 89.98152232 -43.257577 51.9383918 -23.4375 22.8125 C-21.3217465 19.91948908 -19.12237308 17.10420394 -16.875 14.3125 C-16.34503418 13.65378906 -15.81506836 12.99507812 -15.26904297 12.31640625 C-6.27793092 1.48387458 -6.27793092 1.48387458 0 0 Z " fill="#6FEAA7" transform="translate(164.4375,155.1875)"/>
<path d="M0 0 C13.14885102 7.49343122 22.38719504 24.96353129 29 38 C29.73669922 39.44826172 29.73669922 39.44826172 30.48828125 40.92578125 C45.70029854 72.71560066 47.71519976 111.08461087 36.30859375 144.3671875 C29.84673553 162.30607747 18.12942053 190.93528974 0 200 C-3.26941171 200.52310587 -5.80378321 200.80329758 -8.65600586 198.88793945 C-14.83904742 193.26848563 -20.76067764 187.39095319 -26.65698242 181.47338867 C-28.45442236 179.67052659 -30.25722661 177.87315015 -32.06054688 176.07617188 C-33.20605047 174.93000853 -34.35124439 173.78353558 -35.49609375 172.63671875 C-36.03455429 172.10028244 -36.57301483 171.56384613 -37.12779236 171.01115417 C-40.30862298 167.81005338 -41.77953469 166.08228425 -42.6875 161.625 C-42.64051427 156.40018677 -39.46865872 153.57677547 -36.13305664 149.84619141 C-23.09718024 135.10560588 -17.43359726 116.39675618 -17.75 96.8984375 C-18.95097667 78.17070758 -25.96122356 60.20461919 -39.0625 46.625 C-41.33467586 44.12401018 -42.54013786 42.40114877 -42.875 39 C-41.66006962 29.87987606 -29.76038784 21.60742976 -23.47338867 15.34301758 C-21.67052659 13.54557764 -19.87315015 11.74277339 -18.07617188 9.93945312 C-16.93000853 8.79394953 -15.78353558 7.64875561 -14.63671875 6.50390625 C-14.10028244 5.96544571 -13.56384613 5.42698517 -13.01115417 4.87220764 C-8.59819176 0.48718921 -6.36356524 -0.82110519 0 0 Z " fill="#2BC9A0" transform="translate(351,156)"/>
<path d="M0 0 C9.9913355 10.40903347 15.15909482 23.32891156 15.8984375 37.74609375 C15.09720657 53.37009688 9.10287108 67.20771335 -2.4765625 77.74609375 C-14.39880363 87.07265175 -28.22483429 90.94874507 -43.27734375 89.33984375 C-57.72090438 86.86127563 -69.33678017 80.74961964 -78.51171875 69.1796875 C-87.85707759 55.548559 -89.61273836 39.99434471 -86.81640625 23.9609375 C-83.1678835 10.70937653 -75.33314719 0.18468814 -63.7265625 -7.00390625 C-43.05398098 -18.52887044 -17.59793889 -16.01578981 0 0 Z " fill="#4DDAA4" transform="translate(292.4765625,218.25390625)"/>
</svg>
